<svg width="76.000000" height="30.000000" viewBox="0 0 76 30" fill="none" xmlns="http://www.w3.org/2000/svg" xmlns:xlink="http://www.w3.org/1999/xlink">
	<defs>
		<clipPath id="clip1_3683">
			<rect id="Logo" width="76.000000" height="30.000000" fill="white" fill-opacity="0"/>
		</clipPath>
	</defs>
	<g clip-path="url(#clip1_3683)">
		<path id="Vector" d="M75.8823 20.1572C72.7063 25.5415 67.6765 23.979 66.166 22.7559C65.5232 23.1919 64.3958 24.1479 62.8926 24.0376C59.6914 23.8027 58.5449 19.228 58.5449 19.228C58.5679 19.2461 57.5913 19.5649 57.0635 19.5591C57.0566 20.9009 55.897 24.1055 52.7671 24.0645C49.2551 24.019 48.541 18.7866 48.541 18.7866C48.541 18.7866 48.1917 19.2715 46.8628 19.7549C46.9297 18.7246 46.8806 23.9077 42.6714 23.9839C39.3435 24.0444 38.4453 18.7056 38.4453 18.7056C38.4453 18.7056 37.8679 19.3052 36.749 19.5132C36.8203 18.4658 36.7046 24.0015 32.4946 23.9839C29.6497 23.9722 28.6775 20.6953 28.7532 20.2407C28.8496 19.6611 27.7915 24.0654 25.0281 23.9966C23.8877 23.9634 23.0376 23.1377 22.5039 22.0366C21.7898 22.854 20.7529 23.9966 19.5896 23.9966C17.5017 23.9966 16.5813 22.2505 16.7371 17.2622C16.7505 16.6709 16.7078 16.438 16.1196 16.3496C15.7666 16.2905 15.405 16.1792 15.0227 16.1206C14.8999 16.5293 13.8601 23.8638 10.2847 24.0029C9.08521 24.0498 8.4292 23.0107 7.89062 22.2393C7.06494 23.3315 5.9751 24.0376 4.42236 24.0376C1.79199 24.0376 0 21.9116 0 19.2886C0 16.6655 1.79199 14.5396 4.42236 14.5396C4.88721 14.5396 5.01782 14.606 5.44263 14.73C4.56909 6.7749 6.63232 5.53174 8.4375 5.53174C10.1704 5.53174 13.1309 9.55371 8.96509 19.7559C9.88989 22.7988 11.8838 22.627 12.8418 16.3628C13.0369 15.0894 12.5154 13.3711 13.3264 13.1313C14.8091 12.6929 14.9663 14.0078 15.6614 14.2271C16.3965 14.4585 16.8254 14.436 17.531 14.5835C18.7368 14.8188 19.2073 15.4663 19.0603 16.9092C18.8838 18.7344 18.5752 21.3911 19.5161 21.7148C20.1946 21.9502 21.4336 20.543 21.6509 19.7729C21.8682 19.0029 21.9136 18.7397 21.9329 18.1748C21.9624 16.9678 21.9993 16.0835 22.2051 15.1704C22.2932 14.8174 22.3936 14.5835 22.7932 14.5674C23.1218 14.5591 23.7231 14.46 23.9878 14.666C24.3408 14.9312 24.2966 15.2002 24.2561 15.9082C23.8457 26.0015 27.0039 20.9629 27.9453 16.9282C27.6101 12.3662 27.8403 5.61523 30.6992 5.50195C32.1858 5.44336 32.8433 6.63428 32.9155 7.52344C33.1201 10.0342 31.9746 14.1938 30.468 16.9907C29.6069 22.6982 34.2324 23.8267 34.9722 19.271C33.762 18.6958 32.4541 16.3667 33.5183 15.2319C34.1155 14.5947 36.6016 15.5098 36.6421 17.5059C37.8616 17.1797 38.0244 16.4912 38.0413 16.605C37.7061 12.043 38.0171 5.61523 40.876 5.50195C42.3625 5.44336 43.0198 6.63428 43.092 7.52344C43.2966 10.0342 42.1511 14.1938 40.6448 16.9912C39.7837 22.6982 44.4092 23.8271 45.1487 19.2715C44.2527 19.0986 42.3613 16.6211 43.4526 15.2319C44.0359 14.4893 46.5127 16.0332 46.79 17.5718C47.9614 17.2402 48.1206 16.5737 48.1372 16.686C47.802 12.124 48.1128 5.69629 50.9719 5.58301C52.4585 5.52393 53.1157 6.71533 53.188 7.60449C53.3926 10.1152 52.2471 14.2749 50.7405 17.0718C49.8796 22.7793 54.5051 23.9077 55.2449 19.3521C54.0134 19.147 52.2637 16.5312 53.6721 15.1934C54.2346 14.6587 56.3848 16.0464 56.8882 17.6299C57.5874 17.603 58.0227 17.3618 58.116 17.3374C56.9995 11.9819 57.8308 5.55566 60.9062 5.50244C62.5686 5.47314 64.1936 6.40088 63.4802 11.4961C62.7993 16.3574 60.3518 18.3975 60.3577 18.4287C60.5 19.0112 61.7559 23.8853 64.9185 21.3135C64.7549 20.9429 64.5908 20.564 64.4993 20.105C63.9751 17.4326 65.0046 14.4141 67.8032 13.9263C69.4065 13.6465 70.917 14.4272 71.1558 16.187C71.5486 19.0669 68.9485 21.1523 67.9597 21.605C67.5166 21.353 71.9741 24.2119 74.6196 18.4829C74.7729 18.1558 74.958 18.1836 75.1975 18.3521C75.3667 18.4712 76.3306 19.3843 75.8823 20.1572ZM6.33545 18.5811C6.20093 18.1787 5.9248 17.292 5.8269 16.9077C5.28906 16.4399 4.90503 16.3638 4.2146 16.3638C2.67993 16.3638 1.77686 17.7827 1.77686 19.3125C1.77686 20.8423 2.76074 22.2612 4.29541 22.2612C5.62524 22.2612 6.63745 21.3569 6.94604 20.0771C6.72998 19.5781 6.51562 19.1196 6.33545 18.5811ZM8.3999 7.6377C7.32153 7.6377 6.95581 10.21 7.02686 12.4043C7.0896 14.3442 7.63159 16.0522 7.91284 16.8174C7.98438 16.9131 7.97095 16.8511 8.03467 16.9526C9.90698 12.8506 9.13037 7.6377 8.3999 7.6377ZM30.853 7.71826C29.4595 7.55859 29.4685 13.3638 29.6416 14.666C30.3652 13.5083 31.6226 8.03027 30.853 7.71826ZM41.0298 7.71826C39.636 7.55859 39.645 13.3638 39.8181 14.666C40.542 13.5083 41.7993 8.03027 41.0298 7.71826ZM51.1257 7.79932C49.7319 7.63916 49.741 13.4448 49.9141 14.7471C50.6377 13.5889 51.8953 8.11084 51.1257 7.79932ZM61.0601 7.37842C58.8887 7.81445 59.3943 15.0542 59.7241 16.3237C62.2817 12.811 62.3345 7.24658 61.0601 7.37842ZM69.1975 16.4253C69.0872 15.9639 68.5352 15.7173 68.1541 15.7778C67.064 15.9268 66.0066 17.2847 66.4158 19.3516C66.5068 19.812 66.7349 20.2358 66.7312 20.2217C69.1711 18.585 69.3784 17.2949 69.1975 16.4253ZM23.2205 12.9697C22.9089 12.9697 22.6042 12.8774 22.3452 12.7041C22.0862 12.5312 21.884 12.2852 21.7649 11.9971C21.6455 11.7095 21.6143 11.3926 21.675 11.0869C21.7358 10.7812 21.886 10.5005 22.1062 10.2803C22.3264 10.0601 22.6072 9.90967 22.9128 9.84912C23.2185 9.78809 23.5352 9.81934 23.823 9.93896C24.1111 10.0581 24.3569 10.2598 24.53 10.519C24.7031 10.7783 24.7957 11.0825 24.7957 11.3945C24.7957 11.6011 24.7549 11.8062 24.6758 11.9971C24.5967 12.188 24.4807 12.3618 24.3342 12.5083C24.188 12.6543 24.0144 12.7705 23.8232 12.8496C23.6321 12.9287 23.4275 12.9697 23.2205 12.9697Z" fill="#0D0C22" fill-opacity="1.000000" fill-rule="evenodd"/>
	</g>
</svg>
